<svg width="0" height="0" class="hidden">
  <symbol xmlns="http://www.w3.org/2000/svg" viewBox="0 0 15 14" id="instagram-icon">
    <path d="M4.46875 4.46875C5.17708 3.76042 6.03125 3.40625 7.03125 3.40625C8.03125 3.40625 8.875 3.76042 9.5625 4.46875C10.2708 5.15625 10.625 6 10.625 7C10.625 8 10.2708 8.85417 9.5625 9.5625C8.875 10.25 8.03125 10.5938 7.03125 10.5938C6.03125 10.5938 5.17708 10.25 4.46875 9.5625C3.78125 8.85417 3.4375 8 3.4375 7C3.4375 6 3.78125 5.15625 4.46875 4.46875ZM5.375 8.65625C5.83333 9.11458 6.38542 9.34375 7.03125 9.34375C7.67708 9.34375 8.22917 9.11458 8.6875 8.65625C9.14583 8.19792 9.375 7.64583 9.375 7C9.375 6.35417 9.14583 5.80208 8.6875 5.34375C8.22917 4.88542 7.67708 4.65625 7.03125 4.65625C6.38542 4.65625 5.83333 4.88542 5.375 5.34375C4.91667 5.80208 4.6875 6.35417 4.6875 7C4.6875 7.64583 4.91667 8.19792 5.375 8.65625ZM11.3438 2.6875C11.5104 2.83333 11.5938 3.02083 11.5938 3.25C11.5938 3.47917 11.5104 3.67708 11.3438 3.84375C11.1979 4.01042 11.0104 4.09375 10.7812 4.09375C10.5521 4.09375 10.3542 4.01042 10.1875 3.84375C10.0208 3.67708 9.9375 3.47917 9.9375 3.25C9.9375 3.02083 10.0208 2.83333 10.1875 2.6875C10.3542 2.52083 10.5521 2.4375 10.7812 2.4375C11.0104 2.4375 11.1979 2.52083 11.3438 2.6875ZM14 4.125C14.0208 4.6875 14.0312 5.64583 14.0312 7C14.0312 8.35417 14.0208 9.3125 14 9.875C13.9375 11.1458 13.5521 12.1354 12.8438 12.8438C12.1562 13.5312 11.1771 13.8958 9.90625 13.9375C9.34375 13.9792 8.38542 14 7.03125 14C5.67708 14 4.71875 13.9792 4.15625 13.9375C2.88542 13.875 1.90625 13.5 1.21875 12.8125C0.947917 12.5625 0.729167 12.2708 0.5625 11.9375C0.395833 11.6042 0.270833 11.2812 0.1875 10.9688C0.125 10.6562 0.09375 10.2917 0.09375 9.875C0.0520833 9.3125 0.03125 8.35417 0.03125 7C0.03125 5.64583 0.0520833 4.67708 0.09375 4.09375C0.15625 2.84375 0.53125 1.875 1.21875 1.1875C1.90625 0.479167 2.88542 0.09375 4.15625 0.03125C4.71875 0.0104167 5.67708 0 7.03125 0C8.38542 0 9.34375 0.0104167 9.90625 0.03125C11.1771 0.09375 12.1562 0.479167 12.8438 1.1875C13.5521 1.875 13.9375 2.85417 14 4.125ZM12.5 11.125C12.5625 10.9583 12.6146 10.75 12.6562 10.5C12.6979 10.2292 12.7292 9.91667 12.75 9.5625C12.7708 9.1875 12.7812 8.88542 12.7812 8.65625C12.7812 8.42708 12.7812 8.10417 12.7812 7.6875C12.7812 7.27083 12.7812 7.04167 12.7812 7C12.7812 6.9375 12.7812 6.70833 12.7812 6.3125C12.7812 5.89583 12.7812 5.57292 12.7812 5.34375C12.7812 5.11458 12.7708 4.82292 12.75 4.46875C12.7292 4.09375 12.6979 3.78125 12.6562 3.53125C12.6146 3.26042 12.5625 3.04167 12.5 2.875C12.25 2.22917 11.8021 1.78125 11.1562 1.53125C10.9896 1.46875 10.7708 1.41667 10.5 1.375C10.25 1.33333 9.9375 1.30208 9.5625 1.28125C9.20833 1.26042 8.91667 1.25 8.6875 1.25C8.47917 1.25 8.15625 1.25 7.71875 1.25C7.30208 1.25 7.07292 1.25 7.03125 1.25C6.98958 1.25 6.76042 1.25 6.34375 1.25C5.92708 1.25 5.60417 1.25 5.375 1.25C5.14583 1.25 4.84375 1.26042 4.46875 1.28125C4.11458 1.30208 3.80208 1.33333 3.53125 1.375C3.28125 1.41667 3.07292 1.46875 2.90625 1.53125C2.26042 1.78125 1.8125 2.22917 1.5625 2.875C1.5 3.04167 1.44792 3.26042 1.40625 3.53125C1.36458 3.78125 1.33333 4.09375 1.3125 4.46875C1.29167 4.82292 1.28125 5.11458 1.28125 5.34375C1.28125 5.55208 1.28125 5.875 1.28125 6.3125C1.28125 6.72917 1.28125 6.95833 1.28125 7C1.28125 7.08333 1.28125 7.28125 1.28125 7.59375C1.28125 7.88542 1.28125 8.13542 1.28125 8.34375C1.28125 8.53125 1.28125 8.78125 1.28125 9.09375C1.30208 9.40625 1.32292 9.67708 1.34375 9.90625C1.36458 10.1146 1.39583 10.3333 1.4375 10.5625C1.47917 10.7917 1.52083 10.9792 1.5625 11.125C1.83333 11.7708 2.28125 12.2188 2.90625 12.4688C3.07292 12.5312 3.28125 12.5833 3.53125 12.625C3.80208 12.6667 4.11458 12.6979 4.46875 12.7188C4.84375 12.7396 5.13542 12.75 5.34375 12.75C5.57292 12.75 5.89583 12.75 6.3125 12.75C6.75 12.75 6.98958 12.75 7.03125 12.75C7.09375 12.75 7.32292 12.75 7.71875 12.75C8.13542 12.75 8.45833 12.75 8.6875 12.75C8.91667 12.75 9.20833 12.7396 9.5625 12.7188C9.9375 12.6979 10.25 12.6667 10.5 12.625C10.7708 12.5833 10.9896 12.5312 11.1562 12.4688C11.8021 12.1979 12.25 11.75 12.5 11.125Z" ></path>
  </symbol>
  <symbol xmlns="http://www.w3.org/2000/svg" viewBox="0 0 16 14" id="twitter-icon">
    <path d="M14.3438 3.75C14.3646 3.83333 14.375 3.96875 14.375 4.15625C14.375 5.26042 14.1667 6.36458 13.75 7.46875C13.3333 8.55208 12.7396 9.55208 11.9688 10.4688C11.2188 11.3646 10.2396 12.0938 9.03125 12.6562C7.82292 13.2188 6.48958 13.5 5.03125 13.5C3.19792 13.5 1.52083 13.0104 0 12.0312C0.229167 12.0521 0.489583 12.0625 0.78125 12.0625C2.30208 12.0625 3.66667 11.5938 4.875 10.6562C4.14583 10.6562 3.5 10.4479 2.9375 10.0312C2.39583 9.59375 2.02083 9.05208 1.8125 8.40625C2.02083 8.42708 2.21875 8.4375 2.40625 8.4375C2.69792 8.4375 2.98958 8.40625 3.28125 8.34375C2.78125 8.23958 2.33333 8.03125 1.9375 7.71875C1.54167 7.40625 1.22917 7.03125 1 6.59375C0.770833 6.13542 0.65625 5.64583 0.65625 5.125V5.0625C1.11458 5.33333 1.60417 5.47917 2.125 5.5C1.14583 4.83333 0.65625 3.91667 0.65625 2.75C0.65625 2.16667 0.8125 1.61458 1.125 1.09375C1.9375 2.11458 2.92708 2.92708 4.09375 3.53125C5.28125 4.13542 6.54167 4.46875 7.875 4.53125C7.83333 4.28125 7.8125 4.03125 7.8125 3.78125C7.8125 2.88542 8.125 2.11458 8.75 1.46875C9.39583 0.822917 10.1667 0.5 11.0625 0.5C12.0208 0.5 12.8229 0.84375 13.4688 1.53125C14.2188 1.38542 14.9167 1.125 15.5625 0.75C15.3125 1.52083 14.8333 2.125 14.125 2.5625C14.75 2.47917 15.375 2.30208 16 2.03125C15.5417 2.69792 14.9896 3.27083 14.3438 3.75Z" ></path>
  </symbol>
  <symbol xmlns="http://www.w3.org/2000/svg" viewBox="0 0 10 16" id="facebook-icon">
    <path d="M8.71875 9H6.375V16H3.25V9H0.71875V6.09375H3.25V3.90625C3.25 3.07292 3.40625 2.36458 3.71875 1.78125C4.03125 1.19792 4.46875 0.760417 5.03125 0.46875C5.61458 0.15625 6.28125 0 7.03125 0C7.36458 0 7.71875 0.0208333 8.09375 0.0625C8.46875 0.0833333 8.76042 0.114583 8.96875 0.15625L9.28125 0.1875V2.65625H8.03125C7.44792 2.65625 7.02083 2.8125 6.75 3.125C6.5 3.41667 6.375 3.78125 6.375 4.21875V6.09375H9.15625L8.71875 9Z" ></path>
  </symbol>
     <symbol xmlns="http://www.w3.org/2000/svg" viewBox="0 0 24 24" id="clock-icon">
    <path fill-rule="evenodd" d="M13,11.4226497 L13,7 C13,6.448 12.552,6 12,6 C11.448,6 11,6.448 11,7 L11,11.9888376 C10.998236,12.1652918 11.043253,12.339672 11.1300028,12.4931377 C11.2274619,12.6587312 11.3559711,12.7849072 11.509667,12.8716066 L15.830127,15.3660254 C16.308173,15.6420254 16.9201524,15.478046 17.1961524,15 C17.4721524,14.521954 17.308173,13.9099746 16.830127,13.6339746 L13,11.4226497 Z M12,2 C17.5229861,2 22,6.47701386 22,12 C22,17.5229861 17.5229861,22 12,22 C6.47701386,22 2,17.5229861 2,12 C2,6.47701386 6.47701386,2 12,2 Z"></path>
  </symbol>
  <symbol enable-background="new 0 0 64 64" version="1.1" xml:space="preserve" xmlns="http://www.w3.org/2000/svg" xmlns:xlink="http://www.w3.org/1999/xlink" viewBox="0 0 64 64" id="mail-icon">
    <g id="Glyph_copy_2">
      <path d="M63.125,9.977c-0.902-1.321-2.419-2.194-4.131-2.194H5.006c-1.676,0-3.158,0.842-4.067,2.117l31.16,25.982L63.125,9.977z"></path>
      <path d="M0.006,14.328v36.889c0,2.75,2.25,5,5,5h53.988c2.75,0,5-2.25,5-5V14.461L32.099,41.09L0.006,14.328z"></path>
    </g>
  </symbol>
  <symbol version="1.1" id="phone-icon" xmlns="http://www.w3.org/2000/svg" xmlns:xlink="http://www.w3.org/1999/xlink" x="0px" y="0px" xml:space="preserve" viewBox="0 0 401.998 401.998">
    <g>
      <path d="M401.129,311.475c-1.137-3.426-8.371-8.473-21.697-15.129c-3.61-2.098-8.754-4.949-15.41-8.566
		c-6.662-3.617-12.709-6.95-18.13-9.996c-5.432-3.045-10.521-5.995-15.276-8.846c-0.76-0.571-3.139-2.234-7.136-5
		c-4.001-2.758-7.375-4.805-10.14-6.14c-2.759-1.327-5.473-1.995-8.138-1.995c-3.806,0-8.56,2.714-14.268,8.135
		c-5.708,5.428-10.944,11.324-15.7,17.706c-4.757,6.379-9.802,12.275-15.126,17.7c-5.332,5.427-9.713,8.138-13.135,8.138
		c-1.718,0-3.86-0.479-6.427-1.424c-2.566-0.951-4.518-1.766-5.858-2.423c-1.328-0.671-3.607-1.999-6.845-4.004
		c-3.244-1.999-5.048-3.094-5.428-3.285c-26.075-14.469-48.438-31.029-67.093-49.676c-18.649-18.658-35.211-41.019-49.676-67.097
		c-0.19-0.381-1.287-2.19-3.284-5.424c-2-3.237-3.333-5.518-3.999-6.854c-0.666-1.331-1.475-3.283-2.425-5.852
		s-1.427-4.709-1.427-6.424c0-3.424,2.713-7.804,8.138-13.134c5.424-5.327,11.326-10.373,17.7-15.128
		c6.379-4.755,12.275-9.991,17.701-15.699c5.424-5.711,8.136-10.467,8.136-14.273c0-2.663-0.666-5.378-1.997-8.137
		c-1.332-2.765-3.378-6.139-6.139-10.138c-2.762-3.997-4.427-6.374-4.999-7.139c-2.852-4.755-5.799-9.846-8.848-15.271
		c-3.049-5.424-6.377-11.47-9.995-18.131c-3.615-6.658-6.468-11.799-8.564-15.415C98.986,9.233,93.943,1.997,90.516,0.859
		C89.183,0.288,87.183,0,84.521,0c-5.142,0-11.85,0.95-20.129,2.856c-8.282,1.903-14.799,3.899-19.558,5.996
		c-9.517,3.995-19.604,15.605-30.264,34.826C4.863,61.566,0.01,79.271,0.01,96.78c0,5.135,0.333,10.131,0.999,14.989
		c0.666,4.853,1.856,10.326,3.571,16.418c1.712,6.09,3.093,10.614,4.137,13.56c1.045,2.948,2.996,8.229,5.852,15.845
		c2.852,7.614,4.567,12.275,5.138,13.988c6.661,18.654,14.56,35.307,23.695,49.964c15.03,24.362,35.541,49.539,61.521,75.521
		c25.981,25.98,51.153,46.49,75.517,61.526c14.655,9.134,31.314,17.032,49.965,23.698c1.714,0.568,6.375,2.279,13.986,5.141
		c7.614,2.854,12.897,4.805,15.845,5.852c2.949,1.048,7.474,2.43,13.559,4.145c6.098,1.715,11.566,2.905,16.419,3.576
		c4.856,0.657,9.853,0.996,14.989,0.996c17.508,0,35.214-4.856,53.105-14.562c19.219-10.656,30.826-20.745,34.823-30.269
		c2.102-4.754,4.093-11.273,5.996-19.555c1.909-8.278,2.857-14.985,2.857-20.126C401.99,314.814,401.703,312.819,401.129,311.475z"></path>
    </g>
  </symbol>
  <symbol xmlns="http://www.w3.org/2000/svg" viewBox="0 0 9 14" id="location-icon">
    <path d="M6.42857 4.5C6.42857 5.68025 5.46596 6.64286 4.28571 6.64286C3.10547 6.64286 2.14286 5.68025 2.14286 4.5C2.14286 3.31975 3.10547 2.35714 4.28571 2.35714C5.46596 2.35714 6.42857 3.31975 6.42857 4.5ZM8.57143 4.5C8.57143 2.13114 6.65458 0.214285 4.28571 0.214285C1.91685 0.214285 0 2.13114 0 4.5C0 5.0106 0.0585938 5.53795 0.276228 5.99833L3.33147 12.4771C3.49888 12.8454 3.88393 13.0714 4.28571 13.0714C4.6875 13.0714 5.07254 12.8454 5.24833 12.4771L8.2952 5.99833C8.51284 5.53795 8.57143 5.0106 8.57143 4.5Z"></path>
  </symbol>
    <symbol version="1.1" xmlns="http://www.w3.org/2000/svg" xmlns:xlink="http://www.w3.org/1999/xlink" viewBox="0 0 17 17" id="close-icon">
    <title>ic_cancel</title>
    <desc>Created with Sketch.</desc>
    <defs></defs>
    <g id="Icons" stroke-width="1"  fill-rule="evenodd" stroke-linecap="round">
      <g id="24-px-Icons" transform="translate(-364.000000, -124.000000)" >
        <g id="ic_cancel" transform="translate(360.000000, 120.000000)">
          <g id="cross">
            <g transform="translate(5.000000, 5.000000)" stroke-width="2">
              <path d="M0,0 L14.1421356,14.1421356" id="Line"></path>
              <path d="M14,0 L1.77635684e-15,14" id="Line"></path>
            </g>
          </g>
        </g>
      </g>
    </g>
  </symbol>

</svg>
<svg class="icon">
  <use xlink:href="#instagram-icon"></use>
</svg><svg class="icon">
  <use xlink:href="#twitter-icon"></use>
</svg><svg class="icon">
  <use xlink:href="#facebook-icon"></use>
</svg><svg class="icon">
  <use xlink:href="#clock-icon"></use>
</svg><svg class="icon">
  <use xlink:href="#mail-icon"></use>
</svg><svg class="icon">
  <use xlink:href="#phone-icon"></use>
</svg><svg class="icon">
  <use xlink:href="#location-icon"></use>
</svg><svg class="icon">
  <use xlink:href="#close-icon"></use>
</svg>
